<svg id="Layer_1" data-name="Layer 1" xmlns="http://www.w3.org/2000/svg" viewBox="0 0 40.6 74.45"><defs><style>.cls-1{fill:#e29f28;stroke:#e6d022;stroke-miterlimit:10;stroke-width:2px;}</style></defs><path class="cls-1" d="M38.67,28.81q-1,10.32-1,22.92t1.58,17a4.89,4.89,0,0,1,.38,2,2.37,2.37,0,0,1-.93,1.91,3.67,3.67,0,0,1-1.86.84h-1a18.54,18.54,0,0,1-7.67-1.68,5.24,5.24,0,0,1-3.3-5Q24.81,62,24,62l-.65.56q-3.16,6.32-8.09,8a8.81,8.81,0,0,1-3,.56A8.16,8.16,0,0,1,6.39,68.8,13,13,0,0,1,3,62.47,49.86,49.86,0,0,1,1,49c0-4.3.12-8,.37-11S2,31.61,2.63,27.92A48.28,48.28,0,0,1,5.32,17.83,47.26,47.26,0,0,1,9.7,9.37a18.41,18.41,0,0,1,6.6-6.14A18.63,18.63,0,0,1,25.46,1q7.24,0,8.37,3a12.5,12.5,0,0,1,.65,4.55c0,4.78-1.12,7.16-3.35,7.16a4.07,4.07,0,0,1-2.6-1.48,5.44,5.44,0,0,0-4.05-1.49,6.61,6.61,0,0,0-4.83,2.42,14.22,14.22,0,0,0-3.3,6.13,48.32,48.32,0,0,0-1.87,12.84c0,7.38.94,12.43,2.79,15.16a4.59,4.59,0,0,0,3.91,2.14,3.63,3.63,0,0,0,3.49-2.56,16.11,16.11,0,0,0,1.07-6.19,30.12,30.12,0,0,0-1.26-8.09c-.83-3-1.25-4.55-1.25-4.74A3.52,3.52,0,0,1,24.81,27q4.28-3,11-3c2,0,3.07.78,3.07,2.33Z"/></svg>