<svg id="Layer_1" data-name="Layer 1" xmlns="http://www.w3.org/2000/svg" viewBox="0 0 260.07 76.03"><defs><style>.cls-1{fill:#e29f28;stroke:#e6d022;stroke-miterlimit:10;stroke-width:2px;}</style></defs><path class="cls-1" d="M41.86,33.11c1.94,5.8,5.14,12,5.36,18.91s-3.45,11.61-5,14.1a5.67,5.67,0,0,1-1.6,1.69,10.1,10.1,0,0,1-3.21,1.54,12.07,12.07,0,0,1-3,.59l-1.09,0c-3-.23-5-.84-6.31-1.82s-1-2.4.58-4.27c2.08-2.57,2.21-3.86,1.6-3.89l-1,.42a33,33,0,0,1-14.28,6,17.47,17.47,0,0,1-3.75.27C7.55,66.5,6,65.76,5,64.43a9.2,9.2,0,0,1-1.62-5.26c-.37-3.8-1-7.43-1.11-10.9s-.37-6.43-.39-8.87a64.48,64.48,0,0,1,.41-8.14A22.68,22.68,0,0,1,4.8,23.07,31.06,31.06,0,0,1,10.14,16a27.31,27.31,0,0,1,8.29-5.52,27.68,27.68,0,0,1,9.79-2.43c4.58-.21,6.47.69,6.3,2.63-.05,1-.39,2.51-.7,4.39-.61,4.51-.94,6.58-3.2,6.59A4.55,4.55,0,0,1,28,20.32,5.66,5.66,0,0,0,24,19a6.75,6.75,0,0,0-4.68,2.09,9.12,9.12,0,0,0-2.77,5.19,24.42,24.42,0,0,0,.56,10.59C18.86,42.89,20.62,47,23,49.3a7.12,7.12,0,0,0,4.83,1.9c2,.06,3.38-.58,4.11-1.94a6.7,6.7,0,0,0,.34-5,20.66,20.66,0,0,0-3.58-6.67c-1.82-2.48-2.74-3.81-2.79-4a2,2,0,0,1,.87-2.37c2.46-1.59,5.92-2.37,10.39-2.31,2,0,3.32.71,3.91,2C41.33,31.7,41.6,32.4,41.86,33.11Z"/><path class="cls-1" d="M76.94,33.32c-.48.6-.39,1.4.28,2.4a3.64,3.64,0,0,0,.56.71C83.17,42.88,89.11,49,91.6,55.53c.78,2.07,1.53,3.57,2.83,4.46s1.65,2,.88,3.25c-1.2,2-4.16,3.58-8.46,4.74a36.92,36.92,0,0,1-10.4,1.56c-2.72-.11-3.11-1.17-2.15-3.11a1.39,1.39,0,0,1,.22-.51c1.24-3.08,3.87-9-.14-17.27a36.28,36.28,0,0,0-3.73-6.28,1.82,1.82,0,0,0-1.76-.85c-1.73,0-2.61.54-2.7,1.62s1.23,3.72,2,8A20.08,20.08,0,0,1,67.54,60a9.22,9.22,0,0,1-1.37,3.14c-1.51,2-5,3.6-10,4.75a46.69,46.69,0,0,1-11.92,1.49c-2.27-.12-2-1,0-2.76.71-.51,1.37-1,2-1.55,11.42-9.66,7.65-19.28,2.29-29.53a65.67,65.67,0,0,1-5.46-11.82,15,15,0,0,0-2.25-4.42,5.8,5.8,0,0,1-1.37-3.68c.34-2.79,3.67-5.21,9.61-7.33A58.24,58.24,0,0,1,64.54,4.63a15.39,15.39,0,0,1,6.77.84,7.61,7.61,0,0,1,3.58,2.67,14.4,14.4,0,0,1,1.48,4.56c.42,2,.69,4.2,1,6.69C78.4,25.36,79.35,29.81,76.94,33.32ZM62.8,32.18c2.76-2.38,2.46-5.84,1.2-10.74a19.07,19.07,0,0,0-1.65-4.57,3.41,3.41,0,0,0-3.41-2c-3,.06-6,4.89-2.09,13a35,35,0,0,0,2,3.57,2.77,2.77,0,0,0,2.36,1.35A2.26,2.26,0,0,0,62.8,32.18Z"/><path class="cls-1" d="M103.86,3.17c2.9-.16,4.33.93,5.17,3.09,1.1,6.24,3.59,17.82,17.73,33,5.29,6.82,8.6,13.62,4.89,20.65-1.81,3.53-5.7,6.5-10.61,8.71a31.67,31.67,0,0,1-13.49,3.08c-3.67-.16-5.67-1.09-6.55-2.7a14.72,14.72,0,0,1-1.44-5.72A32.81,32.81,0,0,0,98,56c-1.48-4.49-4.15-8.68-6.66-12.8a124.23,124.23,0,0,1-6.82-11.47c-1.69-3.58-2.86-7.38-2.36-11.63S85.6,12,90.14,8.68,100,3.37,103.86,3.17ZM98.47,15.94c-1.67.07-3.57,1.88-4.28,5.11s0,6.7,1.75,10.47a78.07,78.07,0,0,0,6.32,10.41,56,56,0,0,0,5.84,7.52c1.78,1.78,3.33,2.69,5,2.67,2.47,0,4.2-2.18,3.47-6.31-.55-4.17-5-9.81-9.79-17.59C102.15,20.39,101.84,15.75,98.47,15.94Z"/><path class="cls-1" d="M145.08,1c2.92-.16,4.19.94,4.79,3.09.65,6.24.78,17.58,15,33.78,5.48,7.26,9.84,14.64,8,22.43-.88,3.92-3.82,7.26-8,9.79a23.2,23.2,0,0,1-12.35,3.6c-3.62-.15-5.77-1.21-7-3.07A23.6,23.6,0,0,1,143,64a44.59,44.59,0,0,0-3.14-8.15c-2.49-4.94-6.06-9.41-9.24-13.72s-6.17-8.19-8-11.86-2.85-7.55-1.89-11.91S125.26,10,130.4,6.59,141.21,1.15,145.08,1Zm-7.33,12.9c-1.72.09-3.94,1.94-5.05,5.24s-.71,6.86,1,10.72a57.56,57.56,0,0,0,6.93,10.81,67.36,67.36,0,0,0,7,8c2.09,1.92,3.79,2.91,5.37,2.89,2.38,0,3.49-2.4,2.12-6.82-1.17-4.46-6.07-10.45-10.36-18.42C140.8,18.25,141.27,13.63,137.75,13.85Z"/><path class="cls-1" d="M200.78,3.49c-7.07,9.39-7.38,18.44-4.5,28.3,3.06,9.82,7,18,7.31,24.6a26.92,26.92,0,0,1-1.16,10.25,13.59,13.59,0,0,1-13.13,8.87c-3.29-.15-3.94-1.73-3.14-4.57,2.34-8.79-2.38-17.34-9.31-25.59s-13-14.14-16.1-18.76a30,30,0,0,1-3.87-6.88c-1-2.67-1.64-4.65-2.59-5.83a3.26,3.26,0,0,1-.72-3.37c.92-2.26,3.93-4.61,9-7s9.3-3.76,11.61-3.88,2,1.28.1,4A19.55,19.55,0,0,0,173,23.87c4.57,8.6,10.8,14.52,13.76,18,.67.61,1.16.92,1.48.92s.41-.42.26-1.26a37.69,37.69,0,0,0-1-3.73c-.46-1.65-1.69-4.55-2.84-8.7a63.39,63.39,0,0,1-2.07-11.46,80.17,80.17,0,0,0-.79-8.69,2.74,2.74,0,0,1,.42-2c1.19-2.18,4.16-4.18,8.47-5.9s7.81-2.67,10.13-2.79c3-.16,2.84,1.28.83,4.11C201.3,2.82,201,3.2,200.78,3.49Z"/><path class="cls-1" d="M232.25,5.6a23.09,23.09,0,0,1,.37-2.83c.54-1.61,2.3-3.24,5.07-4.88a21.57,21.57,0,0,1,10-2.73c2.84-.13,3.88.77,3.4,2.71a20.22,20.22,0,0,1-1.64,3.76c-.71,1.61-5.26,8.23-8.61,19-3,10.72-2.48,16.71-2.38,18.64a40.87,40.87,0,0,0,3,10l.75,1.8A61,61,0,0,1,248,68a8.36,8.36,0,0,1,.38,2.09A5.94,5.94,0,0,1,246,75c-3.46,2.73-8.27,4-13.52,3.78-2.21-.11-2.68-1.52-2.15-4.13.25-.81.46-1.61.63-2.41a29.26,29.26,0,0,0,.71-3.76,22.73,22.73,0,0,0-.59-9.12,46.31,46.31,0,0,0-4.69-11.76,83.7,83.7,0,0,0-6.49-10.26c-6.1-6.86-10.79-12.46-13.67-17.19-.51-.79-1-1.58-1.42-2.37-1.53-3.16-2.92-5.61-4.77-7.28a2.91,2.91,0,0,1-.67-3.42c1-2.44,4.12-4.64,8.65-6.53s8.15-2.92,10.56-3,2.84,1,2,3.33a21.13,21.13,0,0,0-1.29,6.09c-.35,7.84,3.34,13.27,5.88,16.74.39.53.73.8,1,.8s.56-.23.83-.7c.74-1.93,1.32-4.86,2.49-8.87S231.78,7.76,232.25,5.6Z"/></svg>